<?xml version="1.0" standalone="no"?>
<!DOCTYPE svg PUBLIC "-//W3C//DTD SVG 20010904//EN"
 "http://www.w3.org/TR/2001/REC-SVG-20010904/DTD/svg10.dtd">
<svg version="1.0" xmlns="http://www.w3.org/2000/svg"
 width="700.000000pt" height="700.000000pt" viewBox="0 0 700.000000 700.000000"
 preserveAspectRatio="xMidYMid meet">
<metadata>
Created by potrace 1.14, written by Peter Selinger 2001-2017
</metadata>
<g transform="translate(0.000000,700.000000) scale(0.100000,-0.100000)"
fill="#000000" stroke="none">
<path d="M0 3500 l0 -3500 3495 0 c1922 0 3495 2 3495 5 0 3 -783 788 -1740
1745 -957 957 -1740 1744 -1740 1750 0 6 785 795 1745 1755 l1745 1745 -1750
0 -1750 0 0 -1750 0 -1750 -1745 0 c-960 0 -1745 2 -1745 5 0 3 783 788 1740
1745 957 957 1740 1742 1740 1745 0 3 -785 5 -1745 5 l-1745 0 0 -3500z"/>
</g>
</svg>
